<svg width="22" height="23" viewBox="0 0 22 23" fill="none" xmlns="http://www.w3.org/2000/svg">
<g clip-path="url(#clip0_1487_2700)">
<path d="M6.00574 15.5462V23H0.092725C-0.0420319 22.8177 0.00979765 22.6266 0.00979765 22.4487C0.00683596 20.1207 0.00387427 17.7942 0.00979765 15.4662C0.015721 12.658 1.95563 10.21 4.70259 9.65724C8.15444 8.96373 11.6211 8.34134 15.0818 7.68488C15.7156 7.56484 16.0311 7.2418 15.9911 6.77649C15.9496 6.27414 15.5912 6.02666 14.8982 6.02518C10.1906 6.02518 5.48448 6.02518 0.776875 6.02222C0.542902 6.02222 0.300043 6.07112 0.0408954 5.95702V0.0769569C0.282273 -0.0386289 0.507361 0.0102728 0.723565 0.0102728C5.54075 0.00730901 10.3594 0.00582714 15.1766 0.00879088C18.6536 0.00879088 21.6449 2.68208 21.9663 6.06964C22.3113 9.71652 19.976 12.8848 16.4368 13.5575C13.1034 14.1903 9.76708 14.8127 6.43222 15.441C6.30635 15.4647 6.18344 15.5017 6.00574 15.5462Z" fill="#F0C111"/>
</g>
<defs>
<clipPath id="clip0_1487_2700">
<rect width="22" height="23" fill="white"/>
</clipPath>
</defs>
</svg>
